<?xml version="1.0" standalone="no"?>
<!DOCTYPE svg PUBLIC "-//W3C//DTD SVG 20010904//EN"
 "http://www.w3.org/TR/2001/REC-SVG-20010904/DTD/svg10.dtd">
<svg version="1.0" xmlns="http://www.w3.org/2000/svg"
 width="700.000000pt" height="700.000000pt" viewBox="0 0 700.000000 700.000000"
 preserveAspectRatio="xMidYMid meet">
<metadata>
Created by potrace 1.14, written by Peter Selinger 2001-2017
</metadata>
<g transform="translate(0.000000,700.000000) scale(0.100000,-0.100000)"
fill="#000000" stroke="none">
<path d="M3381 5949 c-340 -44 -637 -335 -690 -676 -32 -206 13 -420 122 -586
88 -133 234 -252 374 -305 l73 -27 0 -50 0 -50 -836 -480 c-562 -323 -850
-494 -880 -523 -59 -56 -100 -123 -124 -201 -18 -57 -20 -93 -20 -367 0 -282
2 -309 21 -367 27 -81 69 -146 130 -201 53 -47 1718 -1010 1804 -1042 68 -26
209 -26 285 -1 80 27 1749 990 1809 1043 62 56 108 127 132 205 17 54 19 94
19 364 0 275 -2 309 -20 368 -25 81 -86 173 -144 219 -25 19 -417 248 -870
509 l-826 474 0 51 0 50 53 17 c134 43 309 182 395 315 153 237 173 560 51
805 -164 328 -495 503 -858 456z m243 -490 c151 -56 247 -226 216 -384 -23
-117 -90 -202 -199 -254 -47 -22 -70 -26 -141 -26 -71 0 -94 4 -141 26 -79 37
-133 90 -171 166 -28 58 -32 75 -32 147 0 67 5 92 29 144 34 77 112 152 188
181 71 27 178 28 251 0z m-124 -2539 l240 0 2 395 3 394 478 -276 c383 -220
476 -278 465 -288 -25 -23 -1173 -679 -1188 -679 -13 0 -1137 642 -1184 677
-16 12 33 43 460 290 l479 276 3 -395 2 -394 240 0z m-880 -501 c377 -217 710
-402 740 -413 71 -24 195 -26 270 -3 42 12 868 479 1458 823 l42 25 0 -193 -1
-193 -804 -465 c-443 -256 -814 -465 -825 -465 -10 0 -381 209 -824 465 l-805
465 -1 193 0 194 33 -20 c17 -11 340 -197 717 -413z"/>
</g>
</svg>
